<svg width="24" height="24" viewBox="0 0 24 24" fill="none" xmlns="http://www.w3.org/2000/svg">
<g clip-path="url(#clip0_47_345)">
<path d="M7.71006 15.9L4.34006 4.68999C4.33041 4.64633 4.33735 4.60065 4.35953 4.56183C4.38171 4.52301 4.41755 4.49384 4.46006 4.47999L6.05006 3.99999C6.09355 3.99249 6.1383 4.00036 6.17662 4.02226C6.21494 4.04415 6.24444 4.07871 6.26006 4.11999L9.76006 15.7C9.76815 15.7197 9.77224 15.7408 9.77209 15.762C9.77193 15.7833 9.76753 15.8043 9.75915 15.8239C9.75077 15.8434 9.73858 15.8611 9.72328 15.8759C9.70798 15.8907 9.68989 15.9023 9.67006 15.91H7.67006L7.71006 15.9Z" fill="white"/>
<path d="M10.18 19.91C10.9753 19.91 11.62 19.2653 11.62 18.47C11.62 17.6747 10.9753 17.03 10.18 17.03C9.3847 17.03 8.73999 17.6747 8.73999 18.47C8.73999 19.2653 9.3847 19.91 10.18 19.91Z" fill="white"/>
<path d="M16.95 19.95C17.7674 19.95 18.43 19.2874 18.43 18.47C18.43 17.6526 17.7674 16.99 16.95 16.99C16.1326 16.99 15.47 17.6526 15.47 18.47C15.47 19.2874 16.1326 19.95 16.95 19.95Z" fill="white"/>
<path d="M19.46 15.9C20.78 11.49 21.71 8.49 21.87 8.1C21.87 8.1 22.02 7.76 21.87 7.66C21.72 7.56 21.73 7.66 21.61 7.58C21.5505 7.54041 21.4996 7.48943 21.46 7.43C21.41 7.33 21.46 7.28 21.38 7.18L21.29 7.07L21.23 7C21.08 6.89 20.63 7 20.63 7C20.12 7.11 20.02 7.27 20.01 7.29C20.0067 7.32659 20.0067 7.36341 20.01 7.4C19.9 7.81 19.22 10.06 17.49 15.71C17.49 15.71 17.49 15.71 17.49 15.77C17.4838 15.7861 17.4838 15.8039 17.49 15.82C17.49 15.82 17.55 15.88 17.57 15.88H19.49L19.46 15.9Z" fill="white"/>
<path d="M21.94 7.72C21.9503 7.75594 21.9503 7.79405 21.94 7.83C21.94 7.89 21.81 7.83 21.31 7.83H8.71C8.63124 7.84989 8.54877 7.84989 8.47 7.83C8.44976 7.82316 8.43261 7.80935 8.42162 7.79103C8.41062 7.77271 8.40651 7.75107 8.41 7.73C8.36793 7.48058 8.30093 7.23603 8.21 7C8.21 6.76 7.91 6 7.88 5.91H21C21.0518 5.8917 21.1082 5.8917 21.16 5.91C21.1893 5.93083 21.2132 5.95823 21.23 5.99L21.87 7.55C21.9069 7.60008 21.9309 7.65845 21.94 7.72Z" fill="white"/>
<path d="M19.36 15.9H7.78996C7.77725 15.9001 7.76467 15.8975 7.75304 15.8923C7.74142 15.8872 7.73101 15.8797 7.72251 15.8702C7.714 15.8608 7.7076 15.8496 7.70371 15.8375C7.69983 15.8254 7.69855 15.8126 7.69996 15.8L7.20996 14.19V14H20L19.44 15.84C19.443 15.8534 19.443 15.8673 19.4398 15.8806C19.4367 15.894 19.4306 15.9064 19.4219 15.917C19.4132 15.9276 19.4022 15.9361 19.3897 15.9418C19.3773 15.9476 19.3637 15.9503 19.35 15.95L19.36 15.9Z" fill="white"/>
<path d="M3.19 4H2L2.33 5.1C2.4 5.34 2.48 5.58 2.55 5.81V5.92C2.54769 5.93193 2.54852 5.94425 2.55242 5.95576C2.55631 5.96726 2.56314 5.97756 2.57222 5.98563C2.5813 5.9937 2.59232 5.99927 2.60421 6.00179C2.61609 6.00431 2.62843 6.00369 2.64 6H3.16L3.19 4Z" fill="white"/>
<path d="M6.09995 4H3.06995V5.98H6.09995V4Z" fill="white"/>
</g>
<defs>
<clipPath id="clip0_47_345">
<rect width="19.95" height="15.95" fill="white" transform="translate(2 4)"/>
</clipPath>
</defs>
</svg>
