<svg width="24" height="24" viewBox="0 0 24 24" fill="none" xmlns="http://www.w3.org/2000/svg">
<g clip-path="url(#clip0_47_344)">
<path d="M11.93 12.06C12.6282 12.06 13.3107 11.853 13.8912 11.4651C14.4717 11.0772 14.9241 10.5259 15.1913 9.88087C15.4585 9.23585 15.5284 8.52609 15.3922 7.84133C15.256 7.15658 14.9198 6.52759 14.4261 6.03391C13.9324 5.54024 13.3034 5.20404 12.6187 5.06783C11.9339 4.93162 11.2242 5.00153 10.5792 5.26871C9.93413 5.53588 9.38282 5.98833 8.99494 6.56884C8.60706 7.14934 8.40002 7.83183 8.40002 8.53C8.40002 9.46622 8.77193 10.3641 9.43394 11.0261C10.0959 11.6881 10.9938 12.06 11.93 12.06V12.06Z" stroke="white" stroke-width="2" stroke-miterlimit="10"/>
<path d="M18 14H6V16H18V14Z" fill="white"/>
<path d="M4 16V21H6V14C5.33 14.61 4.67 15.31 4 16Z" fill="white"/>
<path d="M18 14L17.95 15.96V20.96H19.95V17.9V15.96L18 14Z" fill="white"/>
</g>
<defs>
<clipPath id="clip0_47_344">
<rect width="15.95" height="16.96" fill="white" transform="translate(4 4)"/>
</clipPath>
</defs>
</svg>
