<svg width="140" height="40" viewBox="0 0 140 40" fill="none" xmlns="http://www.w3.org/2000/svg">
    <path d="M56.934 16.3684C56.4618 15.8421 55.937 15.4737 55.5172 15.3158C55.045 15.1579 54.5727 15.0526 54.1004 15.0526C53.4183 15.0526 52.7886 15.1579 52.2114 15.4211C51.6342 15.6842 51.1619 16 50.7421 16.4737C50.3223 16.8947 50.0075 17.4211 49.7976 18C49.5877 18.579 49.4828 19.2105 49.4828 19.8947C49.4828 20.6316 49.5877 21.3158 49.7976 21.8947C50.0075 22.5263 50.3223 23.0526 50.7421 23.4737C51.1619 23.8947 51.6342 24.2632 52.2114 24.5263C52.7886 24.7895 53.4183 24.8947 54.1004 24.8947C54.6252 24.8947 55.2024 24.7895 55.6747 24.5263C56.1994 24.2632 56.6717 23.8421 57.0915 23.2632L59.0855 24.6842C58.4558 25.5263 57.7211 26.1579 56.8291 26.5263C55.937 26.8947 54.9925 27.1053 53.9955 27.1053C52.946 27.1053 52.0015 26.9474 51.1094 26.579C50.2174 26.2632 49.4828 25.7369 48.8531 25.1579C48.2234 24.5263 47.7511 23.7895 47.3838 22.9474C47.0165 22.1053 46.8591 21.1053 46.8591 20.0526C46.8591 18.9474 47.0165 18 47.3838 17.1053C47.7511 16.2105 48.2234 15.4737 48.8531 14.8421C49.4828 14.2105 50.2174 13.7369 51.1094 13.4211C52.0015 13.1053 52.946 12.8947 53.9955 12.8947C54.8876 12.8947 55.7796 13.0526 56.5667 13.3684C57.3538 13.6842 58.0885 14.2632 58.7706 15L56.934 16.3684Z"
          fill="#262626"/>
    <path d="M60.8696 12.6316H63.1784V27.1053H60.8696V12.6316Z" fill="#262626"/>
    <path d="M64.91 22.2632C64.91 21.5263 65.015 20.8948 65.2774 20.2632C65.5397 19.6842 65.907 19.1579 66.3268 18.7369C66.7466 18.3158 67.3238 18 67.901 17.7369C68.5307 17.5263 69.1604 17.3684 69.8426 17.3684C70.5247 17.3684 71.1544 17.4737 71.7841 17.7369C72.4138 17.9474 72.9385 18.3158 73.3583 18.7369C73.7781 19.1579 74.1454 19.6842 74.4078 20.2632C74.6702 20.8421 74.7751 21.5263 74.7751 22.2632C74.7751 23 74.6702 23.6316 74.4078 24.2632C74.1454 24.8421 73.7781 25.3684 73.3583 25.7895C72.9385 26.2105 72.3613 26.5263 71.7841 26.7895C71.1544 27 70.5247 27.1579 69.8426 27.1579C69.1604 27.1579 68.5307 27.0526 67.901 26.7895C67.2714 26.579 66.7466 26.2105 66.3268 25.7895C65.907 25.3684 65.5397 24.8421 65.2774 24.2632C65.015 23.6842 64.91 23 64.91 22.2632ZM67.1664 22.2632C67.1664 22.6316 67.2189 22.9474 67.3238 23.3158C67.4288 23.6316 67.6387 23.9474 67.8486 24.2105C68.0585 24.4737 68.3733 24.6842 68.6881 24.8421C69.003 25 69.3703 25.0526 69.7901 25.0526C70.2099 25.0526 70.5772 25 70.892 24.8421C71.2069 24.6842 71.5217 24.4737 71.7316 24.2105C71.9415 23.9474 72.1514 23.6842 72.2564 23.3158C72.3613 23 72.4138 22.6316 72.4138 22.2632C72.4138 21.8948 72.3613 21.579 72.2564 21.2105C72.1514 20.8948 71.9415 20.579 71.7316 20.3158C71.5217 20.0526 71.2069 19.8421 70.892 19.6842C70.5772 19.5263 70.2099 19.4737 69.7901 19.4737C69.3703 19.4737 69.003 19.5263 68.6881 19.6842C68.3733 19.8421 68.0585 20.0526 67.8486 20.3158C67.6387 20.579 67.4288 20.8421 67.3238 21.2105C67.2189 21.579 67.1664 21.9474 67.1664 22.2632Z"
          fill="#262626"/>
    <path d="M84.955 27.1579H82.8036V25.6842H82.7511C82.5412 26.1579 82.2264 26.5263 81.7541 26.8948C81.3343 27.2105 80.7046 27.4211 79.9175 27.4211C79.2878 27.4211 78.7631 27.3158 78.3433 27.1053C77.9235 26.8948 77.5562 26.6316 77.2938 26.3158C77.0315 26 76.8216 25.579 76.7166 25.1579C76.6117 24.7369 76.5592 24.2632 76.5592 23.7895V18H78.8681V22.6316C78.8681 22.8948 78.868 23.1579 78.9205 23.4737C78.9205 23.7895 79.0255 24.1053 79.1304 24.3684C79.2354 24.6316 79.3928 24.8948 79.6027 25.0527C79.8126 25.2632 80.1274 25.3158 80.5472 25.3158C80.9145 25.3158 81.2294 25.2632 81.4917 25.1053C81.7541 25 81.964 24.7895 82.1214 24.579C82.2788 24.3684 82.4363 24.1053 82.4887 23.8421C82.5412 23.579 82.5937 23.2632 82.5937 22.9474V17.9474H84.9025V27.1579H84.955Z"
          fill="#262626"/>
    <path d="M94.4528 25.7369C94.0855 26.3158 93.6132 26.6842 93.0885 26.9474C92.5112 27.2105 91.934 27.3158 91.2519 27.3158C90.5172 27.3158 89.8876 27.2105 89.3628 26.9474C88.7856 26.6842 88.3134 26.3684 87.946 25.9474C87.5262 25.5263 87.2639 25 87.054 24.4211C86.8441 23.8421 86.7391 23.2105 86.7391 22.5263C86.7391 21.8421 86.8441 21.2105 87.054 20.6316C87.2639 20.0526 87.5787 19.5263 87.946 19.1053C88.3134 18.6842 88.7856 18.3158 89.3628 18.1053C89.8876 17.8421 90.5172 17.7369 91.1469 17.7369C91.5667 17.7369 91.9865 17.7895 92.3014 17.8947C92.6162 18 92.931 18.1053 93.1934 18.2632C93.4558 18.4211 93.6657 18.579 93.8231 18.7369C93.9805 18.8947 94.1379 19.0526 94.2429 19.2105H94.2954V12.6316H96.6042V27.1053H94.4528V25.7369ZM89.048 22.5263C89.048 22.8947 89.1005 23.2105 89.2054 23.579C89.3103 23.8947 89.5202 24.2105 89.7301 24.4737C89.94 24.7369 90.2549 24.9474 90.5697 25.1053C90.8846 25.2632 91.2519 25.3158 91.6717 25.3158C92.0915 25.3158 92.4588 25.2632 92.7736 25.1053C93.0885 24.9474 93.4033 24.7369 93.6132 24.4737C93.8231 24.2105 94.033 23.9474 94.1379 23.579C94.2429 23.2632 94.2954 22.8947 94.2954 22.5263C94.2954 22.1579 94.2429 21.8421 94.1379 21.4737C94.033 21.1579 93.8231 20.8421 93.6132 20.579C93.4033 20.3158 93.0885 20.1053 92.7736 19.9474C92.4588 19.7895 92.0915 19.7369 91.6717 19.7369C91.2519 19.7369 90.8846 19.7895 90.5697 19.9474C90.2549 20.1053 89.94 20.3158 89.7301 20.579C89.5202 20.8421 89.3103 21.1053 89.2054 21.4737C89.1005 21.8421 89.048 22.1579 89.048 22.5263Z"
          fill="#262626"/>
    <path d="M98.8081 17.8947H101.117V19.3684H101.169C101.432 18.8421 101.799 18.4211 102.271 18.1053C102.744 17.7895 103.268 17.6842 103.898 17.6842C104.055 17.6842 104.16 17.6842 104.318 17.7369C104.475 17.7369 104.58 17.7895 104.738 17.8421V20.0526C104.528 20 104.37 19.9474 104.16 19.9474C103.951 19.8947 103.793 19.8947 103.636 19.8947C103.111 19.8947 102.691 20 102.324 20.2105C102.009 20.4211 101.747 20.6316 101.589 20.8947C101.432 21.1579 101.327 21.4211 101.222 21.6842C101.169 21.9474 101.117 22.1053 101.117 22.2632V27.2105H98.8081V17.8947V17.8947Z"
          fill="#262626"/>
    <path d="M111.454 25.6316H111.402C111.087 26.1579 110.667 26.5263 110.142 26.7895C109.618 27 109.093 27.1579 108.463 27.1579C108.043 27.1579 107.624 27.1053 107.256 27C106.837 26.8948 106.522 26.7369 106.207 26.4737C105.892 26.2632 105.63 25.9474 105.472 25.6316C105.262 25.2632 105.21 24.8948 105.21 24.4211C105.21 23.9474 105.315 23.4737 105.472 23.1579C105.63 22.7895 105.892 22.5263 106.207 22.2632C106.522 22.0526 106.837 21.8421 107.256 21.6842C107.676 21.5263 108.043 21.4211 108.463 21.3684C108.883 21.3158 109.303 21.2632 109.775 21.2105C110.195 21.2105 110.615 21.1579 110.982 21.1579H111.559V20.8948C111.559 20.3158 111.349 19.8948 110.982 19.579C110.562 19.3158 110.09 19.1579 109.46 19.1579C108.988 19.1579 108.516 19.2632 108.096 19.4211C107.676 19.579 107.309 19.8421 106.994 20.1053L105.787 18.8948C106.312 18.3684 106.889 18 107.571 17.7895C108.253 17.579 108.936 17.4211 109.67 17.4211C110.3 17.4211 110.877 17.4737 111.297 17.6316C111.717 17.7895 112.136 17.9474 112.399 18.2105C112.714 18.4211 112.924 18.6842 113.081 19C113.238 19.3158 113.343 19.579 113.448 19.8948C113.501 20.2105 113.553 20.4737 113.553 20.7895C113.553 21.0526 113.553 21.3158 113.553 21.5263V26.7895H111.507V25.6316H111.454ZM111.349 22.7895H110.877C110.562 22.7895 110.195 22.7895 109.828 22.8421C109.408 22.8421 109.04 22.9474 108.726 23C108.358 23.1053 108.096 23.2105 107.834 23.4211C107.571 23.6316 107.466 23.8421 107.466 24.2105C107.466 24.4211 107.519 24.6316 107.624 24.7369C107.729 24.8948 107.834 25 107.991 25.1053C108.148 25.2105 108.306 25.2632 108.516 25.3158C108.726 25.3684 108.883 25.3684 109.093 25.3684C109.88 25.3684 110.457 25.1579 110.825 24.7895C111.192 24.4211 111.402 23.8948 111.402 23.2632V22.7895H111.349Z"
          fill="#262626"/>
    <path d="M114.393 17.8947H116.859L118.853 24.3158H118.906L120.742 17.8947H123.208L125.202 24.3158H125.255L127.144 17.8947H129.453L126.357 27.1053H124.1L121.949 20.8421H121.897L119.955 27.1053H117.594L114.393 17.8947Z"
          fill="#262626"/>
    <path opacity="0.6"
          d="M19.048 24.7369C21.6562 24.7369 23.7706 22.6161 23.7706 20C23.7706 17.3839 21.6562 15.2632 19.048 15.2632C16.4397 15.2632 14.3253 17.3839 14.3253 20C14.3253 22.6161 16.4397 24.7369 19.048 24.7369Z"
          fill="#0057F4"/>
    <path opacity="0.3"
          d="M28.5982 29.4737C33.8147 29.4737 38.0434 25.2322 38.0434 20C38.0434 14.7678 33.8147 10.5263 28.5982 10.5263C23.3817 10.5263 19.1529 14.7678 19.1529 20C19.1529 25.2322 23.3817 29.4737 28.5982 29.4737Z"
          fill="#0057F4"/>
    <path opacity="0.4"
          d="M42.7136 24.7368C42.7136 22.1579 40.6672 20.1053 38.1484 20H15.3748C15.3223 20 15.2699 20 15.2174 20C12.5937 20 10.4948 22.1053 10.4948 24.7368C10.4948 27.3684 12.5937 29.4737 15.2174 29.4737C15.2699 29.4737 15.3223 29.4737 15.3748 29.4737H38.1484C40.6672 29.3684 42.7136 27.3158 42.7136 24.7368Z"
          fill="#0057F4"/>
    <path opacity="0.4"
          d="M15.2174 29.4737C17.8256 29.4737 19.94 27.3529 19.94 24.7368C19.94 22.1208 17.8256 20 15.2174 20C12.6091 20 10.4948 22.1208 10.4948 24.7368C10.4948 27.3529 12.6091 29.4737 15.2174 29.4737Z"
          fill="#0057F4"/>
    <path opacity="0.4"
          d="M37.991 29.4737C40.5993 29.4737 42.7136 27.3529 42.7136 24.7368C42.7136 22.1208 40.5993 20 37.991 20C35.3828 20 33.2684 22.1208 33.2684 24.7368C33.2684 27.3529 35.3828 29.4737 37.991 29.4737Z"
          fill="#0057F4"/>
</svg>
