<svg width="24" height="24" viewBox="0 0 24 24" fill="none" xmlns="http://www.w3.org/2000/svg">
<g clip-path="url(#clip0_47_230)">
<path d="M14.0601 12.25V4.87L16.0601 5V12.0341L14.0601 12.25Z" fill="#2078E2"/>
<path d="M2 12.07L2.05 5L4.05 4.91V12.13L2 12.07Z" fill="#2078E2"/>
<path d="M14.81 3.42C14.6979 3.24938 14.5426 3.1114 14.36 3.02C14.2577 3.00004 14.1524 3.00004 14.05 3.02H4.11005C3.99872 2.98983 3.88137 2.98983 3.77005 3.02C3.58049 3.09677 3.42449 3.23859 3.33005 3.42C2.93099 3.96845 2.50375 4.49582 2.05005 5H16.05C15.46 4.28 15.05 3.74 14.81 3.42Z" fill="#2078E2"/>
<path d="M12.75 12.07H2C2.21071 12.3121 2.40769 12.5658 2.59 12.83L3.09 13.52C3.20583 13.7379 3.39817 13.9053 3.63 13.99C3.70196 14.01 3.77804 14.01 3.85 13.99H14C14.1099 14.0297 14.2301 14.0297 14.34 13.99C14.5291 13.9292 14.6892 13.8011 14.79 13.63C15 13.32 15.44 12.77 16.06 12.03L12.75 12.07Z" fill="#2078E2"/>
<path d="M15.75 15H15.39V17H16.93C17.0413 17.0302 17.1587 17.0302 17.27 17C17.454 16.9294 17.6089 16.7991 17.71 16.63C17.92 16.32 18.37 15.79 18.99 15.05L15.75 15Z" fill="#2078E2"/>
<path d="M15.28 15H4V17H15.1V15H15.28Z" fill="#2078E2"/>
<path d="M15.39 15H15.09V17H15.39V15Z" fill="#2078E2"/>
<path d="M18.71 18H6V20H18.73C19.1307 19.9817 19.5322 19.9984 19.93 20.05C20.0425 20.0694 20.1575 20.0694 20.27 20.05C20.454 19.9794 20.6089 19.8491 20.71 19.68C20.92 19.37 21.37 18.82 21.99 18.08L18.71 18Z" fill="#2078E2"/>
<path d="M19 15.05L17 15.18V5H19V15.05Z" fill="#2078E2"/>
<path d="M22 18.08L20 18.14V7H22V18.08Z" fill="#2078E2"/>
</g>
<defs>
<clipPath id="clip0_47_230">
<rect width="20" height="17.07" fill="white" transform="translate(2 3)"/>
</clipPath>
</defs>
</svg>
