<svg width="24" height="24" viewBox="0 0 24 24" fill="none" xmlns="http://www.w3.org/2000/svg">
<g clip-path="url(#clip0_47_346)">
<path d="M20.5 3.44C20.3885 3.24051 20.212 3.08523 20 3C19.8785 2.96993 19.7515 2.96993 19.63 3H4.29C4.1685 2.96993 4.0415 2.96993 3.92 3C3.72009 3.08091 3.54929 3.22033 3.43 3.4C2.9888 3.964 2.51111 4.49848 2 5H21.91C21.4109 4.50705 20.9402 3.98622 20.5 3.44Z" fill="white"/>
<path d="M2 5.00001L4 4.92001V18.06H2V5.00001Z" fill="white"/>
<path d="M19.91 4.84L21.91 5.02V18.02H19.91V4.84Z" fill="white"/>
<path d="M20.5 19.66C20.382 19.8322 20.2035 19.9536 20 20C19.8785 20.0301 19.7515 20.0301 19.63 20C19.42 20 18.93 20 18.3 19.95H4.3C4.1785 19.9801 4.0515 19.9801 3.93 19.95C3.72713 19.8903 3.55294 19.7588 3.44 19.58L2 18H21.91C21.22 18.81 20.73 19.35 20.5 19.66Z" fill="white"/>
<path d="M18.94 10.16C18.4 9.80001 14.94 7.48001 14.04 6.81001C13.7294 6.57705 13.394 6.37917 13.04 6.22001C12.9938 6.1955 12.9423 6.18268 12.89 6.18268C12.8377 6.18268 12.7862 6.1955 12.74 6.22001L11 7.26001V14.73V14.6L7.54996 12.43L6.88996 12L9.88996 10.28L9.99996 10.16C10.0301 10.025 10.0301 9.88501 9.99996 9.75001V8.21001C9.99286 8.15338 9.96581 8.10113 9.92365 8.06264C9.8815 8.02415 9.82701 8.00195 9.76996 8.00001C9.71485 8.008 9.66482 8.03659 9.62996 8.08001L5.35996 10.57L5.13996 10.69L4.99996 10.78C4.98992 10.8057 4.98992 10.8343 4.99996 10.86V13.11V13.18C5.53996 13.54 8.99996 15.86 9.89996 16.53L10.5 16.93H10.8L12.57 15.78L12.74 15.67C12.8065 15.6677 12.8698 15.6409 12.9178 15.5948C12.9658 15.5487 12.9951 15.4864 13 15.42V8.47001L17 11.32L14.1 13H14C13.9588 13.015 13.9236 13.0431 13.9 13.08C13.8898 13.1194 13.8898 13.1607 13.9 13.2V14.91C13.872 15.0182 13.872 15.1318 13.9 15.24C13.9148 15.2499 13.9322 15.2552 13.95 15.2552C13.9678 15.2552 13.9852 15.2499 14 15.24L18.52 12.7L18.74 12.58C18.7896 12.5443 18.8307 12.4979 18.8601 12.4443C18.8895 12.3906 18.9065 12.3311 18.91 12.27V10.18L18.94 10.16Z" fill="white"/>
</g>
<defs>
<clipPath id="clip0_47_346">
<rect width="19.91" height="17.05" fill="white" transform="translate(2 3)"/>
</clipPath>
</defs>
</svg>
