<svg width="42" height="72" viewBox="0 0 42 72" fill="none" xmlns="http://www.w3.org/2000/svg">
<path d="M14.3333 28.5H27.6667C27.8877 28.5 28.0996 28.5878 28.2559 28.7441C28.4122 28.9004 28.5 29.1123 28.5 29.3333V42.6667C28.5 42.8877 28.4122 43.0996 28.2559 43.2559C28.0996 43.4122 27.8877 43.5 27.6667 43.5H14.3333C14.1123 43.5 13.9004 43.4122 13.7441 43.2559C13.5878 43.0996 13.5 42.8877 13.5 42.6667V29.3333C13.5 29.1123 13.5878 28.9004 13.7441 28.7441C13.9004 28.5878 14.1123 28.5 14.3333 28.5V28.5ZM15.1667 30.1667V41.8333H26.8333V30.1667H15.1667Z" fill="#626262"/>
</svg>
