<svg width="20" height="20" viewBox="0 0 20 20" fill="none" xmlns="http://www.w3.org/2000/svg">
<path fill-rule="evenodd" clip-rule="evenodd" d="M18.6 10.1999C18.6 9.5999 18.5 8.8999 18.4 8.3999H10V11.8999H14.8C14.6 12.9999 14 13.8999 13 14.5999V16.8999H16C17.7 15.2999 18.6 12.8999 18.6 10.1999Z" fill="#4285F4"/>
<path fill-rule="evenodd" clip-rule="evenodd" d="M10 19C12.4 19 14.5 18.2 16 16.8L13 14.6C12.2 15.1 11.2 15.5 10 15.5C7.7 15.5 5.7 13.9 5 11.8H2V14C3.4 17 6.5 19 10 19Z" fill="#34A853"/>
<path fill-rule="evenodd" clip-rule="evenodd" d="M5 11.7C4.8 11.2 4.7 10.6 4.7 10C4.7 9.4 4.8 8.8 5 8.3V6H2C1.4 7.2 1 8.6 1 10C1 11.4 1.3 12.8 2 14L5 11.7Z" fill="#FBBC05"/>
<path fill-rule="evenodd" clip-rule="evenodd" d="M10 4.6C11.3 4.6 12.5 5.1 13.4 5.9L16 3.3C14.5 1.9 12.4 1 10 1C6.5 1 3.4 3 2 6L5 8.3C5.7 6.2 7.7 4.6 10 4.6Z" fill="#EA4335"/>
</svg>
