<svg width="20" height="20" viewBox="0 0 20 20" fill="none" xmlns="http://www.w3.org/2000/svg">
<path d="M4.16675 6.66667C3.50371 6.66667 2.86782 6.40328 2.39898 5.93444C1.93014 5.4656 1.66675 4.82971 1.66675 4.16667C1.66675 3.50363 1.93014 2.86775 2.39898 2.3989C2.86782 1.93006 3.50371 1.66667 4.16675 1.66667C4.82979 1.66667 5.46567 1.93006 5.93451 2.3989C6.40336 2.86775 6.66675 3.50363 6.66675 4.16667C6.66675 4.82971 6.40336 5.4656 5.93451 5.93444C5.46567 6.40328 4.82979 6.66667 4.16675 6.66667ZM15.8334 6.66667C15.1704 6.66667 14.5345 6.40328 14.0656 5.93444C13.5968 5.4656 13.3334 4.82971 13.3334 4.16667C13.3334 3.50363 13.5968 2.86775 14.0656 2.3989C14.5345 1.93006 15.1704 1.66667 15.8334 1.66667C16.4965 1.66667 17.1323 1.93006 17.6012 2.3989C18.07 2.86775 18.3334 3.50363 18.3334 4.16667C18.3334 4.82971 18.07 5.4656 17.6012 5.93444C17.1323 6.40328 16.4965 6.66667 15.8334 6.66667ZM15.8334 18.3333C15.1704 18.3333 14.5345 18.0699 14.0656 17.6011C13.5968 17.1323 13.3334 16.4964 13.3334 15.8333C13.3334 15.1703 13.5968 14.5344 14.0656 14.0656C14.5345 13.5967 15.1704 13.3333 15.8334 13.3333C16.4965 13.3333 17.1323 13.5967 17.6012 14.0656C18.07 14.5344 18.3334 15.1703 18.3334 15.8333C18.3334 16.4964 18.07 17.1323 17.6012 17.6011C17.1323 18.0699 16.4965 18.3333 15.8334 18.3333ZM4.16675 18.3333C3.50371 18.3333 2.86782 18.0699 2.39898 17.6011C1.93014 17.1323 1.66675 16.4964 1.66675 15.8333C1.66675 15.1703 1.93014 14.5344 2.39898 14.0656C2.86782 13.5967 3.50371 13.3333 4.16675 13.3333C4.82979 13.3333 5.46567 13.5967 5.93451 14.0656C6.40336 14.5344 6.66675 15.1703 6.66675 15.8333C6.66675 16.4964 6.40336 17.1323 5.93451 17.6011C5.46567 18.0699 4.82979 18.3333 4.16675 18.3333ZM7.50008 3.33334H12.5001V5.00001H7.50008V3.33334ZM7.50008 15H12.5001V16.6667H7.50008V15ZM3.33341 7.5H5.00008V12.5H3.33341V7.5ZM15.0001 7.5H16.6667V12.5H15.0001V7.5Z" fill="#626262"/>
</svg>
