<svg width="42" height="72" viewBox="0 0 42 72" fill="none" xmlns="http://www.w3.org/2000/svg">
<path d="M21.8333 32.6667V39.3333C21.8333 39.9964 21.5699 40.6323 21.1011 41.1011C20.6323 41.5699 19.9964 41.8333 19.3333 41.8333H17.525C17.3284 42.3896 16.9415 42.8584 16.4327 43.157C15.9238 43.4555 15.3258 43.5646 14.7443 43.4648C14.1629 43.3651 13.6354 43.063 13.2551 42.612C12.8748 42.1609 12.6663 41.59 12.6663 41C12.6663 40.41 12.8748 39.8391 13.2551 39.388C13.6354 38.937 14.1629 38.6349 14.7443 38.5352C15.3258 38.4354 15.9238 38.5445 16.4327 38.843C16.9415 39.1416 17.3284 39.6104 17.525 40.1667H19.3333C19.5543 40.1667 19.7663 40.0789 19.9226 39.9226C20.0789 39.7663 20.1667 39.5544 20.1667 39.3333V32.6667C20.1667 32.0036 20.4301 31.3677 20.8989 30.8989C21.3677 30.4301 22.0036 30.1667 22.6667 30.1667H25.1667V27.6667L29.3333 31L25.1667 34.3333V31.8333H22.6667C22.4457 31.8333 22.2337 31.9211 22.0774 32.0774C21.9211 32.2337 21.8333 32.4457 21.8333 32.6667Z" fill="#626262"/>
</svg>
