<svg width="42" height="72" viewBox="0 0 42 72" fill="none" xmlns="http://www.w3.org/2000/svg">
<g clip-path="url(#clip0_1131_18389)">
<path d="M22 50V58C22 58.7956 21.6839 59.5587 21.1213 60.1213C20.5587 60.6839 19.7956 61 19 61H16.83C16.5941 61.6675 16.1298 62.2301 15.5192 62.5884C14.9086 62.9466 14.191 63.0775 13.4932 62.9578C12.7954 62.8381 12.1625 62.4756 11.7061 61.9344C11.2498 61.3931 10.9995 60.708 10.9995 60C10.9995 59.292 11.2498 58.6069 11.7061 58.0656C12.1625 57.5244 12.7954 57.1619 13.4932 57.0422C14.191 56.9225 14.9086 57.0534 15.5192 57.4116C16.1298 57.7699 16.5941 58.3325 16.83 59H19C19.2652 59 19.5196 58.8946 19.7071 58.7071C19.8946 58.5196 20 58.2652 20 58V50C20 49.2044 20.3161 48.4413 20.8787 47.8787C21.4413 47.3161 22.2044 47 23 47H26V44L31 48L26 52V49H23C22.7348 49 22.4804 49.1054 22.2929 49.2929C22.1054 49.4804 22 49.7348 22 50Z" fill="#626262"/>
</g>
<g clip-path="url(#clip1_1131_18389)">
<path d="M14 14C13.2044 14 12.4413 13.6839 11.8787 13.1213C11.3161 12.5587 11 11.7956 11 11C11 10.2044 11.3161 9.44129 11.8787 8.87868C12.4413 8.31607 13.2044 8 14 8C14.7956 8 15.5587 8.31607 16.1213 8.87868C16.6839 9.44129 17 10.2044 17 11C17 11.7956 16.6839 12.5587 16.1213 13.1213C15.5587 13.6839 14.7956 14 14 14ZM28 14C27.2044 14 26.4413 13.6839 25.8787 13.1213C25.3161 12.5587 25 11.7956 25 11C25 10.2044 25.3161 9.44129 25.8787 8.87868C26.4413 8.31607 27.2044 8 28 8C28.7956 8 29.5587 8.31607 30.1213 8.87868C30.6839 9.44129 31 10.2044 31 11C31 11.7956 30.6839 12.5587 30.1213 13.1213C29.5587 13.6839 28.7956 14 28 14ZM28 28C27.2044 28 26.4413 27.6839 25.8787 27.1213C25.3161 26.5587 25 25.7956 25 25C25 24.2044 25.3161 23.4413 25.8787 22.8787C26.4413 22.3161 27.2044 22 28 22C28.7956 22 29.5587 22.3161 30.1213 22.8787C30.6839 23.4413 31 24.2044 31 25C31 25.7956 30.6839 26.5587 30.1213 27.1213C29.5587 27.6839 28.7956 28 28 28ZM14 28C13.2044 28 12.4413 27.6839 11.8787 27.1213C11.3161 26.5587 11 25.7956 11 25C11 24.2044 11.3161 23.4413 11.8787 22.8787C12.4413 22.3161 13.2044 22 14 22C14.7956 22 15.5587 22.3161 16.1213 22.8787C16.6839 23.4413 17 24.2044 17 25C17 25.7956 16.6839 26.5587 16.1213 27.1213C15.5587 27.6839 14.7956 28 14 28ZM18 10H24V12H18V10ZM18 24H24V26H18V24ZM13 15H15V21H13V15ZM27 15H29V21H27V15Z" fill="#626262"/>
</g>
<line x1="9" y1="35.5" x2="33" y2="35.5" stroke="#E0E0E0"/>
<defs>
<clipPath id="clip0_1131_18389">
<rect width="24" height="24" fill="white" transform="translate(9 42)"/>
</clipPath>
<clipPath id="clip1_1131_18389">
<rect width="24" height="24" fill="white" transform="translate(9 6)"/>
</clipPath>
</defs>
</svg>
