<svg width="42" height="72" viewBox="0 0 42 72" fill="none" xmlns="http://www.w3.org/2000/svg">
<path d="M15.1667 32.6667C14.5037 32.6667 13.8678 32.4033 13.399 31.9344C12.9301 31.4656 12.6667 30.8297 12.6667 30.1667C12.6667 29.5036 12.9301 28.8677 13.399 28.3989C13.8678 27.9301 14.5037 27.6667 15.1667 27.6667C15.8298 27.6667 16.4657 27.9301 16.9345 28.3989C17.4034 28.8677 17.6667 29.5036 17.6667 30.1667C17.6667 30.8297 17.4034 31.4656 16.9345 31.9344C16.4657 32.4033 15.8298 32.6667 15.1667 32.6667ZM26.8334 32.6667C26.1704 32.6667 25.5345 32.4033 25.0656 31.9344C24.5968 31.4656 24.3334 30.8297 24.3334 30.1667C24.3334 29.5036 24.5968 28.8677 25.0656 28.3989C25.5345 27.9301 26.1704 27.6667 26.8334 27.6667C27.4965 27.6667 28.1323 27.9301 28.6012 28.3989C29.07 28.8677 29.3334 29.5036 29.3334 30.1667C29.3334 30.8297 29.07 31.4656 28.6012 31.9344C28.1323 32.4033 27.4965 32.6667 26.8334 32.6667ZM26.8334 44.3333C26.1704 44.3333 25.5345 44.0699 25.0656 43.6011C24.5968 43.1323 24.3334 42.4964 24.3334 41.8333C24.3334 41.1703 24.5968 40.5344 25.0656 40.0656C25.5345 39.5967 26.1704 39.3333 26.8334 39.3333C27.4965 39.3333 28.1323 39.5967 28.6012 40.0656C29.07 40.5344 29.3334 41.1703 29.3334 41.8333C29.3334 42.4964 29.07 43.1323 28.6012 43.6011C28.1323 44.0699 27.4965 44.3333 26.8334 44.3333ZM15.1667 44.3333C14.5037 44.3333 13.8678 44.0699 13.399 43.6011C12.9301 43.1323 12.6667 42.4964 12.6667 41.8333C12.6667 41.1703 12.9301 40.5344 13.399 40.0656C13.8678 39.5967 14.5037 39.3333 15.1667 39.3333C15.8298 39.3333 16.4657 39.5967 16.9345 40.0656C17.4034 40.5344 17.6667 41.1703 17.6667 41.8333C17.6667 42.4964 17.4034 43.1323 16.9345 43.6011C16.4657 44.0699 15.8298 44.3333 15.1667 44.3333ZM18.5001 29.3333H23.5001V31H18.5001V29.3333ZM18.5001 41H23.5001V42.6667H18.5001V41ZM14.3334 33.5H16.0001V38.5H14.3334V33.5ZM26.0001 33.5H27.6667V38.5H26.0001V33.5Z" fill="#626262"/>
</svg>
