<svg width="20" height="20" viewBox="0 0 20 20" fill="none" xmlns="http://www.w3.org/2000/svg">
<path d="M10.8333 6.66667V13.3333C10.8333 13.9964 10.5699 14.6323 10.1011 15.1011C9.63226 15.5699 8.99637 15.8333 8.33333 15.8333H6.525C6.32841 16.3896 5.9415 16.8584 5.43266 17.157C4.92382 17.4555 4.32581 17.5646 3.74434 17.4648C3.16287 17.3651 2.63538 17.063 2.25511 16.612C1.87483 16.1609 1.66626 15.59 1.66626 15C1.66626 14.41 1.87483 13.8391 2.25511 13.388C2.63538 12.937 3.16287 12.6349 3.74434 12.5352C4.32581 12.4354 4.92382 12.5445 5.43266 12.843C5.9415 13.1416 6.32841 13.6104 6.525 14.1667H8.33333C8.55435 14.1667 8.76631 14.0789 8.92259 13.9226C9.07887 13.7663 9.16667 13.5544 9.16667 13.3333V6.66667C9.16667 6.00363 9.43006 5.36775 9.8989 4.89891C10.3677 4.43006 11.0036 4.16667 11.6667 4.16667H14.1667V1.66667L18.3333 5.00001L14.1667 8.33334V5.83334H11.6667C11.4457 5.83334 11.2337 5.92114 11.0774 6.07742C10.9211 6.2337 10.8333 6.44566 10.8333 6.66667Z" fill="#626262"/>
</svg>
